<svg width="423" height="300" viewBox="0 0 423 300" fill="none" xmlns="http://www.w3.org/2000/svg">
<path d="M5.5 127.75L2.15059 125.563L1.5 126.56V127.75H5.5ZM71.25 27.75V23.75H69.1006L67.9144 25.5424L71.25 27.75ZM105.75 27.75H109.75V23.75H105.75V27.75ZM105.75 127.75H101.75V131.75H105.75V127.75ZM131.25 127.75H135.25V123.75H131.25V127.75ZM131.25 155.75V159.75H135.25V155.75H131.25ZM105.75 155.75V151.75H101.75V155.75H105.75ZM105.75 186V190H109.75V186H105.75ZM70.75 186H66.75V190H70.75V186ZM70.75 155.75H74.75V151.75H70.75V155.75ZM5.5 155.75H1.5V159.75H5.5V155.75ZM35.5 127.75L32.1254 125.602L28.2133 131.75H35.5V127.75ZM70.75 127.75V131.75H74.75V127.75H70.75ZM70.75 72.5H74.75V58.983L67.3942 70.3232L70.75 72.5ZM55.75 96L59.1213 98.1528L59.1266 98.1444L59.132 98.136L55.75 96ZM8.84941 129.937C29.8445 97.7775 51.7566 64.4512 74.5856 29.9576L67.9144 25.5424C45.0768 60.0488 23.1555 93.3892 2.15059 125.563L8.84941 129.937ZM71.25 31.75H105.75V23.75H71.25V31.75ZM101.75 27.75V127.75H109.75V27.75H101.75ZM105.75 131.75H131.25V123.75H105.75V131.75ZM127.25 127.75V155.75H135.25V127.75H127.25ZM131.25 151.75H105.75V159.75H131.25V151.75ZM101.75 155.75V186H109.75V155.75H101.75ZM105.75 182H70.75V190H105.75V182ZM74.75 186V155.75H66.75V186H74.75ZM70.75 151.75H5.5V159.75H70.75V151.75ZM9.5 155.75V127.75H1.5V155.75H9.5ZM35.5 131.75H70.75V123.75H35.5V131.75ZM74.75 127.75V72.5H66.75V127.75H74.75ZM67.3942 70.3232C63.3821 76.5085 58.3727 84.3567 52.368 93.864L59.132 98.136C65.1273 88.6433 70.1179 80.8248 74.1058 74.6768L67.3942 70.3232ZM52.3787 93.8472C43.545 107.681 36.7937 118.266 32.1254 125.602L38.8746 129.897C43.5396 122.567 50.2883 111.986 59.1213 98.1528L52.3787 93.8472ZM254.695 52.5L251.339 54.6768L251.345 54.6851L254.695 52.5ZM250.695 168.25L247.611 165.702L247.606 165.709L247.601 165.715L250.695 168.25ZM160.695 162.5L164.077 160.363L164.07 160.353L164.064 160.343L160.695 162.5ZM165.195 46.5L168.335 48.9786L168.35 48.9597L168.364 48.9406L165.195 46.5ZM190.195 146.25L193.786 144.488L193.785 144.486L190.195 146.25ZM226.195 145.25L222.605 143.486L222.593 143.512L222.58 143.538L226.195 145.25ZM207.695 28.75C225.464 28.75 239.955 37.1262 251.339 54.6768L258.051 50.3232C245.435 30.8738 228.593 20.75 207.695 20.75V28.75ZM251.345 54.6851C260.858 69.2717 265.695 86.7351 265.695 107.25H273.695C273.695 85.4316 268.533 66.3949 258.046 50.3149L251.345 54.6851ZM265.695 107.25C265.695 131.913 259.539 151.264 247.611 165.702L253.779 170.798C267.185 154.57 273.695 133.253 273.695 107.25H265.695ZM247.601 165.715C237 178.655 223.787 185 207.695 185V193C226.271 193 241.724 185.512 253.789 170.785L247.601 165.715ZM207.695 185C188.96 185 174.542 176.921 164.077 160.363L157.314 164.637C169.182 183.412 186.097 193 207.695 193V185ZM164.064 160.343C155.068 146.297 150.445 128.675 150.445 107.25H142.445C142.445 129.825 147.323 149.037 157.327 164.657L164.064 160.343ZM150.445 107.25C150.445 83.2766 156.508 63.9596 168.335 48.9786L162.056 44.0214C148.883 60.7071 142.445 81.89 142.445 107.25H150.445ZM168.364 48.9406C178.832 35.3486 191.862 28.75 207.695 28.75V20.75C189.195 20.75 173.892 28.6514 162.026 44.0594L168.364 48.9406ZM208.195 50.75C203.279 50.75 198.8 52.0033 194.914 54.6194C191.056 57.2174 188.011 61.0038 185.673 65.7252C181.053 75.0561 178.945 88.5486 178.945 105.75H186.945C186.945 88.9513 189.046 76.9439 192.843 69.2748C194.713 65.4962 196.929 62.9076 199.382 61.2555C201.809 59.6217 204.695 58.75 208.195 58.75V50.75ZM178.945 105.75C178.945 123.217 181.392 137.408 186.606 148.014L193.785 144.486C189.332 135.425 186.945 122.617 186.945 105.75H178.945ZM186.604 148.012C191.319 157.622 198.188 163.5 207.445 163.5V155.5C202.369 155.5 197.739 152.545 193.786 144.488L186.604 148.012ZM207.445 163.5C217.495 163.5 224.895 157.338 229.81 146.962L222.58 143.538C218.495 152.162 213.396 155.5 207.445 155.5V163.5ZM229.786 147.014C234.835 136.734 237.195 122.872 237.195 105.75H229.195C229.195 122.294 226.889 134.766 222.605 143.486L229.786 147.014ZM237.195 105.75C237.195 88.5516 235.108 75.0652 230.537 65.7394C228.224 61.0211 225.209 57.2321 221.382 54.6298C217.526 52.0077 213.078 50.75 208.195 50.75V58.75C211.646 58.75 214.49 59.6172 216.884 61.2452C219.307 62.8929 221.5 65.4788 223.354 69.2606C227.115 76.9348 229.195 88.9484 229.195 105.75H237.195ZM284.309 127.75L280.959 125.563L280.309 126.56V127.75H284.309ZM350.059 27.75V23.75H347.909L346.723 25.5424L350.059 27.75ZM384.559 27.75H388.559V23.75H384.559V27.75ZM384.559 127.75H380.559V131.75H384.559V127.75ZM410.059 127.75H414.059V123.75H410.059V127.75ZM410.059 155.75V159.75H414.059V155.75H410.059ZM384.559 155.75V151.75H380.559V155.75H384.559ZM384.559 186V190H388.559V186H384.559ZM349.559 186H345.559V190H349.559V186ZM349.559 155.75H353.559V151.75H349.559V155.75ZM284.309 155.75H280.309V159.75H284.309V155.75ZM314.309 127.75L310.934 125.602L307.022 131.75H314.309V127.75ZM349.559 127.75V131.75H353.559V127.75H349.559ZM349.559 72.5H353.559V58.983L346.203 70.3232L349.559 72.5ZM334.559 96L337.93 98.1528L337.935 98.1444L337.941 98.136L334.559 96ZM287.658 129.937C308.653 97.7775 330.565 64.4512 353.394 29.9576L346.723 25.5424C323.885 60.0488 301.964 93.3892 280.959 125.563L287.658 129.937ZM350.059 31.75H384.559V23.75H350.059V31.75ZM380.559 27.75V127.75H388.559V27.75H380.559ZM384.559 131.75H410.059V123.75H384.559V131.75ZM406.059 127.75V155.75H414.059V127.75H406.059ZM410.059 151.75H384.559V159.75H410.059V151.75ZM380.559 155.75V186H388.559V155.75H380.559ZM384.559 182H349.559V190H384.559V182ZM353.559 186V155.75H345.559V186H353.559ZM349.559 151.75H284.309V159.75H349.559V151.75ZM288.309 155.75V127.75H280.309V155.75H288.309ZM314.309 131.75H349.559V123.75H314.309V131.75ZM353.559 127.75V72.5H345.559V127.75H353.559ZM346.203 70.3232C342.191 76.5085 337.181 84.3567 331.177 93.864L337.941 98.136C343.936 88.6433 348.927 80.8248 352.914 74.6768L346.203 70.3232ZM331.187 93.8472C322.354 107.681 315.602 118.266 310.934 125.602L317.683 129.897C322.348 122.567 329.097 111.986 337.93 98.1528L331.187 93.8472Z" fill="#82C3AD"/>
<g filter="url(#filter0_f_985_227)">
<path d="M11.5 127.75C32.5 95.5833 54.4167 62.25 77.25 27.75H111.75V127.75H137.25V155.75H111.75V186H76.75V155.75H11.5V127.75ZM41.5 127.75H76.75V72.5C72.75 78.6667 67.75 86.5 61.75 96C52.9167 109.833 46.1667 120.417 41.5 127.75ZM213.695 24.75C233.029 24.75 248.695 34 260.695 52.5C270.695 67.8333 275.695 86.0833 275.695 107.25C275.695 132.583 269.362 152.917 256.695 168.25C245.362 182.083 231.029 189 213.695 189C193.529 189 177.862 180.167 166.695 162.5C157.195 147.667 152.445 129.25 152.445 107.25C152.445 82.5833 158.695 62.3333 171.195 46.5C182.362 32 196.529 24.75 213.695 24.75ZM214.195 54.75C197.362 54.75 188.945 71.75 188.945 105.75C188.945 122.917 191.362 136.417 196.195 146.25C200.529 155.083 206.279 159.5 213.445 159.5C221.445 159.5 227.695 154.75 232.195 145.25C236.862 135.75 239.195 122.583 239.195 105.75C239.195 71.75 230.862 54.75 214.195 54.75ZM290.309 127.75C311.309 95.5833 333.225 62.25 356.059 27.75H390.559V127.75H416.059V155.75H390.559V186H355.559V155.75H290.309V127.75ZM320.309 127.75H355.559V72.5C351.559 78.6667 346.559 86.5 340.559 96C331.725 109.833 324.975 120.417 320.309 127.75Z" fill="#73BCA3" fill-opacity="0.3"/>
</g>
<defs>
<filter id="filter0_f_985_227" x="7.5" y="20.75" width="412.559" height="172.25" filterUnits="userSpaceOnUse" color-interpolation-filters="sRGB">
<feFlood flood-opacity="0" result="BackgroundImageFix"/>
<feBlend mode="normal" in="SourceGraphic" in2="BackgroundImageFix" result="shape"/>
<feGaussianBlur stdDeviation="2" result="effect1_foregroundBlur_985_227"/>
</filter>
</defs>
</svg>
