<svg width="697" height="697" viewBox="0 0 697 697" fill="none" xmlns="http://www.w3.org/2000/svg">
<path d="M210.484 183.923C210.484 183.923 285.222 240.639 398.842 134.591C499.748 40.4117 582.14 189.005 582.717 260.164C583.464 352.342 481.81 426.099 531.142 486.643C580.475 547.187 433.31 647.166 353.995 560.641C255.331 453.007 228.602 540.46 172.363 540.46C132.001 540.46 49.1318 440.169 105.092 365.555C152.182 302.769 126.5 281.931 114.063 260.164C96.1228 228.771 138.728 143.561 210.484 183.923Z" fill="#73BCA3" fill-opacity="0.17"/>
<path d="M510.532 309.256C514.548 310.749 518.939 310.848 523.116 309.89C540.616 305.873 600.789 295.237 590.332 341.866C588.056 351.117 552.814 402.927 603.002 421.84C606.68 423.243 610.569 424.009 614.504 424.105C629.957 424.423 660.579 420.775 673.394 407.729C688.876 391.969 671.962 399.443 671.962 399.443C671.962 399.443 613.105 425.127 592.315 397.878C590.002 394.846 588.529 390.442 588.107 386.651C587.375 380.079 590.294 371.393 594.128 363.832C599.316 353.599 624.228 307.565 570.141 294.155C557.682 291.187 539.585 288.522 516.251 298.346C502.64 304.076 505.655 307.445 510.532 309.256Z" fill="#73BCA3" fill-opacity="0.33"/>
<path d="M522.576 292.071L506.911 297.934C501.503 299.958 498.76 305.983 500.784 311.391L501.56 313.466C503.584 318.873 509.609 321.616 515.017 319.593L530.682 313.729C536.09 311.706 538.833 305.681 536.809 300.273L536.033 298.198C534.009 292.791 527.984 290.047 522.576 292.071Z" fill="#73BCA3" fill-opacity="0.42"/>
<path d="M426.416 309.037L374.751 328.373C372.047 329.385 370.676 332.397 371.688 335.101L371.891 335.645C372.903 338.349 375.916 339.72 378.619 338.708L430.284 319.372C432.988 318.36 434.36 315.348 433.348 312.644L433.144 312.1C432.132 309.396 429.12 308.025 426.416 309.037Z" fill="white"/>
<path d="M440.835 347.563L389.17 366.899C386.466 367.911 385.095 370.924 386.107 373.627L386.31 374.171C387.322 376.875 390.335 378.247 393.038 377.235L444.703 357.898C447.407 356.887 448.779 353.874 447.767 351.17L447.563 350.627C446.551 347.923 443.539 346.551 440.835 347.563Z" fill="white"/>
<path d="M488.535 282.745L446.662 298.416C441.254 300.44 438.511 306.465 440.535 311.872L454.831 350.071C456.855 355.479 462.88 358.222 468.287 356.198L510.161 340.526C515.569 338.502 518.312 332.478 516.288 327.07L501.992 288.872C499.968 283.464 493.943 280.721 488.535 282.745Z" fill="#73BCA3" fill-opacity="0.85"/>
<path d="M450.987 292.766L409.114 308.437C403.706 310.461 400.963 316.486 402.987 321.894L420.043 367.466C422.067 372.874 428.091 375.617 433.499 373.593L475.372 357.921C480.78 355.897 483.523 349.873 481.5 344.465L464.444 298.893C462.42 293.485 456.395 290.742 450.987 292.766Z" fill="#73BCA3" fill-opacity="0.85"/>
<path d="M457.543 283.517L457.214 283.64C453.609 284.989 451.78 289.006 453.13 292.611L477.023 356.453C478.373 360.058 482.389 361.887 485.994 360.537L486.323 360.414C489.928 359.065 491.756 355.049 490.407 351.444L466.514 287.602C465.164 283.997 461.148 282.168 457.543 283.517Z" fill="#73BCA3" fill-opacity="0.85"/>
<path d="M30.5721 324.335C30.5721 324.335 114.668 300.702 102.459 355.15C100.338 363.766 69.817 408.126 106.173 429.425C113.979 433.998 122.988 436.024 132.034 435.976C148.255 435.892 173.969 432.77 185.52 421.012C201.002 405.252 184.089 412.726 184.089 412.726C184.089 412.726 135.791 432.593 110.944 416.756C102.46 411.349 98.6139 400.879 100.918 391.085C102.095 386.221 103.889 381.526 106.254 377.115C111.658 366.994 136.355 320.848 82.2675 307.437C69.808 304.47 51.7114 301.805 28.3776 311.629C5.04375 321.453 30.5721 324.335 30.5721 324.335Z" fill="#73BCA3" fill-opacity="0.33"/>
<path d="M196.828 400.542L181.163 406.405C175.755 408.429 173.012 414.454 175.036 419.861L175.812 421.936C177.836 427.344 183.861 430.087 189.269 428.063L204.934 422.2C210.342 420.176 213.085 414.152 211.061 408.744L210.285 406.669C208.261 401.261 202.236 398.518 196.828 400.542Z" fill="#73BCA3" fill-opacity="0.42"/>
<path d="M223.296 374.767L200.079 383.457C194.671 385.481 191.928 391.505 193.952 396.913L205.147 426.826C207.171 432.234 213.196 434.977 218.603 432.953L241.821 424.264C247.229 422.24 249.972 416.215 247.948 410.807L236.753 380.894C234.729 375.486 228.704 372.743 223.296 374.767Z" fill="#73BCA3" fill-opacity="0.85"/>
<path d="M261.949 351.737L227.325 364.695C221.917 366.719 219.174 372.744 221.198 378.152L238.254 423.724C240.278 429.132 246.302 431.875 251.71 429.851L286.334 416.893C291.742 414.869 294.485 408.844 292.461 403.436L275.405 357.864C273.381 352.456 267.356 349.713 261.949 351.737Z" fill="#73BCA3" fill-opacity="0.85"/>
<path d="M269.282 342.299L268.954 342.422C265.348 343.771 263.52 347.788 264.869 351.393L288.763 415.235C290.112 418.84 294.128 420.669 297.733 419.319L298.062 419.196C301.667 417.847 303.496 413.831 302.146 410.225L278.253 346.384C276.904 342.779 272.887 340.95 269.282 342.299Z" fill="#73BCA3" fill-opacity="0.85"/>
<path d="M357.695 301.627C356.448 301.488 355.303 300.872 354.502 299.906C353.7 298.941 353.305 297.703 353.398 296.452L355.982 249.265C356.136 246.446 358.516 244.304 361.217 244.554L364.981 244.902C367.682 245.151 369.616 247.69 369.238 250.489L362.89 297.327C362.744 298.575 362.122 299.718 361.155 300.519C360.187 301.32 358.947 301.717 357.695 301.627Z" fill="#73BCA3" fill-opacity="0.85"/>
<path d="M335.389 305.695C335.001 305.809 334.594 305.846 334.192 305.803C333.79 305.76 333.401 305.638 333.046 305.444C332.691 305.25 332.378 304.989 332.125 304.674C331.871 304.359 331.682 303.997 331.568 303.61L322.342 274.257C322.074 273.422 322.148 272.515 322.548 271.735C322.947 270.954 323.64 270.364 324.475 270.094L326.863 269.373C327.273 269.254 327.703 269.22 328.126 269.275C328.55 269.33 328.957 269.473 329.323 269.693C329.688 269.913 330.004 270.207 330.251 270.556C330.497 270.905 330.669 271.301 330.754 271.719L337.592 301.793C337.782 302.601 337.661 303.451 337.253 304.175C336.845 304.898 336.179 305.441 335.389 305.695Z" fill="#73BCA3" fill-opacity="0.85"/>
<path d="M322.939 322.622C321.286 324.67 317.962 324.646 315.403 322.567L269.969 285.653C267.255 283.448 266.454 279.798 268.208 277.627L270.652 274.6C272.406 272.427 276.007 272.605 278.576 274.991L321.565 314.933C323.986 317.182 324.592 320.574 322.939 322.622Z" fill="#73BCA3" fill-opacity="0.85"/>
<path d="M343.941 417.966C345.112 418.419 346.061 419.307 346.589 420.445C347.117 421.583 347.183 422.882 346.774 424.067L332.225 469.028C331.356 471.714 328.508 473.175 325.959 472.246L322.408 470.948C319.86 470.018 318.637 467.068 319.719 464.46L337.819 420.796C338.278 419.627 339.171 418.679 340.312 418.152C341.453 417.625 342.753 417.558 343.941 417.966Z" fill="#73BCA3" fill-opacity="0.85"/>
<path d="M366.547 419.73C366.951 419.719 367.354 419.787 367.731 419.932C368.109 420.076 368.454 420.293 368.748 420.571C369.042 420.849 369.277 421.182 369.442 421.551C369.607 421.92 369.698 422.318 369.709 422.722L371.132 453.458C371.178 454.333 370.875 455.192 370.29 455.844C369.704 456.497 368.883 456.89 368.008 456.938L365.514 457.025C365.087 457.036 364.662 456.958 364.267 456.797C363.872 456.636 363.514 456.394 363.217 456.088C362.92 455.781 362.689 455.416 362.54 455.016C362.391 454.616 362.327 454.19 362.351 453.763L363.422 422.941C363.444 422.111 363.778 421.32 364.357 420.725C364.936 420.13 365.718 419.774 366.547 419.73Z" fill="#73BCA3" fill-opacity="0.85"/>
<path d="M382.907 406.544C385.028 404.986 388.236 405.858 390.179 408.522L424.679 455.813C426.74 458.639 426.582 462.37 424.33 464.023L421.194 466.326C418.944 467.979 415.507 466.886 413.634 463.924L382.268 414.327C380.505 411.536 380.785 408.101 382.907 406.544Z" fill="#73BCA3" fill-opacity="0.85"/>
</svg>
