<svg width="1028" height="1080" viewBox="0 0 1028 1080" fill="none" xmlns="http://www.w3.org/2000/svg">
<path d="M2004.57 863.227C2012.55 873.659 2004.22 888.585 1991.15 887.265L703.411 757.227C692.673 756.143 686.56 744.414 691.821 734.991L1193.14 -162.94C1198.4 -172.364 1211.59 -173.314 1218.15 -164.742L2004.57 863.227Z" fill="#4C7598" fill-opacity="0.13"/>
<path d="M2050.98 852.69C2058.84 863.212 2050.34 878.042 2037.28 876.574L751.106 731.951C740.381 730.746 734.401 718.948 739.768 709.585L1251.23 -182.607C1256.6 -191.97 1269.8 -192.771 1276.26 -184.125L2050.98 852.69Z" fill="white"/>
<path d="M2122.67 809.737C2130.65 820.169 2122.32 835.094 2109.25 833.775L821.515 703.737C810.777 702.652 804.664 690.924 809.925 681.5L1311.24 -216.431C1316.5 -225.854 1329.7 -226.804 1336.25 -218.233L2122.67 809.737Z" fill="#4C7598" fill-opacity="0.13"/>
<path d="M2169.08 799.197C2176.94 809.72 2168.44 824.55 2155.39 823.082L869.211 678.459C858.486 677.253 852.506 665.456 857.874 656.093L1369.34 -236.099C1374.7 -245.462 1387.9 -246.263 1394.36 -237.618L2169.08 799.197Z" fill="white"/>
<path d="M2237.58 743.606C2245.56 754.038 2237.22 768.963 2224.15 767.644L936.419 637.606C925.681 636.521 919.568 624.793 924.829 615.37L1426.15 -282.561C1431.41 -291.985 1444.6 -292.935 1451.16 -284.363L2237.58 743.606Z" fill="#4C7598" fill-opacity="0.13"/>
<path d="M2283.98 733.069C2291.85 743.591 2283.35 758.421 2270.29 756.953L984.113 612.33C973.389 611.124 967.409 599.327 972.776 589.964L1484.24 -302.228C1489.61 -311.591 1502.81 -312.392 1509.27 -303.746L2283.98 733.069Z" fill="white"/>
</svg>
