<svg width="28" height="15" viewBox="0 0 28 15" fill="none" xmlns="http://www.w3.org/2000/svg">
<path id="Vector" d="M13.9549 14.5404C13.6216 14.5404 13.2983 14.4851 12.985 14.3743C12.6718 14.2636 12.4119 14.116 12.2053 13.9314L0.712303 3.74452C0.254248 3.33852 0.0254364 2.82179 0.0258658 2.19434C0.0262953 1.56688 0.255814 1.05016 0.714425 0.644156C1.17304 0.238156 1.75651 0.0351563 2.46484 0.0351563C3.17317 0.0351563 3.75637 0.238156 4.21442 0.644156L13.9585 9.28089L23.7144 0.644156C24.173 0.238156 24.7565 0.0351563 25.4648 0.0351563C26.1731 0.0351563 26.7563 0.238156 27.2144 0.644156C27.6724 1.05016 27.9013 1.56688 27.9008 2.19434C27.9004 2.82179 27.6709 3.33852 27.2123 3.74452L15.7053 13.9314C15.4552 14.1529 15.1842 14.3101 14.8925 14.4031C14.6008 14.4961 14.2882 14.5419 13.9549 14.5404Z" fill="#4C7598" fill-opacity="0.9"/>
</svg>
