<svg version="1.2" xmlns="http://www.w3.org/2000/svg" viewBox="0 0 56 39" width="56" height="39"><defs><linearGradient id="P" gradientUnits="userSpaceOnUse"/><linearGradient id="g1" x2="1" href="#P" gradientTransform="matrix(55.267,0,0,38.066,0,19.214)"><stop offset="1" stop-color="#fff" stop-opacity="1"/></linearGradient></defs><style>.a{fill:#fff;stroke:#4c7598}.b{fill:url(#g1);stroke:#4c7598}</style><path class="a" d="m27.8 13.6q0 0 0 0.1 0.1 0 0.1 0.1 0 0.1-0.1 0.1 0 0.1 0 0.1l-4.2 4.2-0.3 0.4 0.3 0.3 4.2 4.2h0.1q0 0.1 0 0.1 0 0.1 0 0.1 0 0.1 0 0.1 0 0.1 0 0.1-0.1 0.1-0.1 0.1-0.1 0-0.2 0 0 0-0.1 0 0 0-0.1-0.1l-4.8-4.7q-0.1-0.1-0.1-0.2 0-0.1 0.1-0.2l4.8-4.8q0 0 0-0.1 0.1 0 0.2 0 0 0 0.1 0 0 0.1 0.1 0.1z"/><path class="a" d="m33 18.6q0.1 0.1 0.1 0.2 0 0.1-0.1 0.2-0.1 0.1-0.2 0.1l-8 0.1q-0.1 0-0.2-0.1 0-0.1 0-0.2 0-0.1 0-0.2 0.1-0.1 0.2-0.1l8-0.1q0.1 0 0.2 0.1z"/><path class="b" d="m0.5 19.2c0-10.3 8.4-18.7 18.7-18.7h16.9c10.3 0 18.7 8.4 18.7 18.7 0 10.3-8.4 18.7-18.7 18.7h-16.9c-10.3 0-18.7-8.4-18.7-18.7z"/><path class="a" d="m27.8 13.6q0 0 0 0.1 0.1 0 0.1 0.1 0 0.1-0.1 0.1 0 0.1 0 0.1l-4.2 4.2-0.3 0.4 0.3 0.3 4.2 4.2h0.1q0 0.1 0 0.1 0 0.1 0 0.1 0 0.1 0 0.1 0 0.1 0 0.1-0.1 0.1-0.1 0.1-0.1 0-0.2 0 0 0-0.1 0 0 0-0.1-0.1l-4.8-4.7q-0.1-0.1-0.1-0.2 0-0.1 0.1-0.2l4.8-4.8q0 0 0-0.1 0.1 0 0.2 0 0 0 0.1 0 0 0.1 0.1 0.1z"/><path class="a" d="m33 18.6q0.1 0.1 0.1 0.2 0 0.1-0.1 0.2-0.1 0.1-0.2 0.1l-8 0.1q-0.1 0-0.2-0.1 0-0.1 0-0.2 0-0.1 0-0.2 0.1-0.1 0.2-0.1l8-0.1q0.1 0 0.2 0.1z"/></svg>