<svg width="20" height="20" viewBox="0 0 20 20" fill="none" xmlns="http://www.w3.org/2000/svg">
<path fill-rule="evenodd" clip-rule="evenodd" d="M16.1115 18.8893C16.8483 18.8893 17.5548 18.5967 18.0757 18.0757C18.5967 17.5548 18.8893 16.8483 18.8893 16.1115C18.8893 15.3748 18.5967 14.6683 18.0757 14.1474C17.5548 13.6264 16.8483 13.3338 16.1115 13.3338C15.3748 13.3338 14.6683 13.6264 14.1474 14.1474C13.6264 14.6683 13.3338 15.3748 13.3338 16.1115C13.3338 16.8483 13.6264 17.5548 14.1474 18.0757C14.6683 18.5967 15.3748 18.8893 16.1115 18.8893ZM16.1115 20.0004C17.1429 20.0004 18.1321 19.5907 18.8614 18.8614C19.5907 18.1321 20.0004 17.1429 20.0004 16.1115C20.0004 15.0801 19.5907 14.091 18.8614 13.3617C18.1321 12.6324 17.1429 12.2227 16.1115 12.2227C15.0801 12.2227 14.091 12.6324 13.3617 13.3617C12.6324 14.091 12.2227 15.0801 12.2227 16.1115C12.2227 17.1429 12.6324 18.1321 13.3617 18.8614C14.091 19.5907 15.0801 20.0004 16.1115 20.0004Z" fill="#88878A"/>
<path fill-rule="evenodd" clip-rule="evenodd" d="M16.1115 14.1673C16.2589 14.1673 16.4002 14.2258 16.5044 14.33C16.6086 14.4342 16.6671 14.5755 16.6671 14.7229V15.8818L17.0599 16.2745C17.1611 16.3793 17.2171 16.5197 17.2158 16.6653C17.2145 16.811 17.1561 16.9503 17.0531 17.0533C16.9501 17.1563 16.8108 17.2148 16.6651 17.216C16.5194 17.2173 16.3791 17.1613 16.2743 17.0601L15.556 16.3418V14.7229C15.556 14.5755 15.6145 14.4342 15.7187 14.33C15.8229 14.2258 15.9642 14.1673 16.1115 14.1673ZM4.44488 9.4451H3.33377V10.5562H4.44488V9.4451ZM3.33377 8.33398C3.03908 8.33398 2.75647 8.45105 2.54809 8.65942C2.33972 8.8678 2.22266 9.15041 2.22266 9.4451V10.5562C2.22266 10.8509 2.33972 11.1335 2.54809 11.3419C2.75647 11.5503 3.03908 11.6673 3.33377 11.6673H4.44488C4.73956 11.6673 5.02218 11.5503 5.23055 11.3419C5.43893 11.1335 5.55599 10.8509 5.55599 10.5562V9.4451C5.55599 9.15041 5.43893 8.8678 5.23055 8.65942C5.02218 8.45105 4.73956 8.33398 4.44488 8.33398H3.33377ZM8.88932 9.4451H7.77821V10.5562H8.88932V9.4451ZM7.77821 8.33398C7.48353 8.33398 7.20091 8.45105 6.99254 8.65942C6.78416 8.8678 6.6671 9.15041 6.6671 9.4451V10.5562C6.6671 10.8509 6.78416 11.1335 6.99254 11.3419C7.20091 11.5503 7.48353 11.6673 7.77821 11.6673H8.88932C9.18401 11.6673 9.46662 11.5503 9.675 11.3419C9.88337 11.1335 10.0004 10.8509 10.0004 10.5562V9.4451C10.0004 9.15041 9.88337 8.8678 9.675 8.65942C9.46662 8.45105 9.18401 8.33398 8.88932 8.33398H7.77821ZM13.3338 9.4451H12.2227V10.5562H13.3338V9.4451ZM12.2227 8.33398C11.928 8.33398 11.6454 8.45105 11.437 8.65942C11.2286 8.8678 11.1115 9.15041 11.1115 9.4451V10.5562C11.1115 10.8509 11.2286 11.1335 11.437 11.3419C11.6454 11.5503 11.928 11.6673 12.2227 11.6673H13.3338C13.6285 11.6673 13.9111 11.5503 14.1194 11.3419C14.3278 11.1335 14.4449 10.8509 14.4449 10.5562V9.4451C14.4449 9.15041 14.3278 8.8678 14.1194 8.65942C13.9111 8.45105 13.6285 8.33398 13.3338 8.33398H12.2227ZM4.44488 13.8895H3.33377V15.0007H4.44488V13.8895ZM3.33377 12.7784C3.03908 12.7784 2.75647 12.8955 2.54809 13.1039C2.33972 13.3122 2.22266 13.5949 2.22266 13.8895V15.0007C2.22266 15.2953 2.33972 15.578 2.54809 15.7863C2.75647 15.9947 3.03908 16.1118 3.33377 16.1118H4.44488C4.73956 16.1118 5.02218 15.9947 5.23055 15.7863C5.43893 15.578 5.55599 15.2953 5.55599 15.0007V13.8895C5.55599 13.5949 5.43893 13.3122 5.23055 13.1039C5.02218 12.8955 4.73956 12.7784 4.44488 12.7784H3.33377ZM8.88932 13.8895H7.77821V15.0007H8.88932V13.8895ZM7.77821 12.7784C7.48353 12.7784 7.20091 12.8955 6.99254 13.1039C6.78416 13.3122 6.6671 13.5949 6.6671 13.8895V15.0007C6.6671 15.2953 6.78416 15.578 6.99254 15.7863C7.20091 15.9947 7.48353 16.1118 7.77821 16.1118H8.88932C9.18401 16.1118 9.46662 15.9947 9.675 15.7863C9.88337 15.578 10.0004 15.2953 10.0004 15.0007V13.8895C10.0004 13.5949 9.88337 13.3122 9.675 13.1039C9.46662 12.8955 9.18401 12.7784 8.88932 12.7784H7.77821Z" fill="#88878A"/>
<path fill-rule="evenodd" clip-rule="evenodd" d="M1.11111 3.33268C1.11111 3.18534 1.16964 3.04403 1.27383 2.93985C1.37802 2.83566 1.51932 2.77713 1.66667 2.77713H4.44444V1.66602H1.66667C1.22464 1.66602 0.800716 1.84161 0.488155 2.15417C0.175595 2.46673 0 2.89065 0 3.33268V16.666C0 17.108 0.175595 17.532 0.488155 17.8445C0.800716 18.1571 1.22464 18.3327 1.66667 18.3327H12.9194C12.6825 17.9933 12.5015 17.6182 12.3833 17.2216H1.66667C1.51932 17.2216 1.37802 17.163 1.27383 17.0589C1.16964 16.9547 1.11111 16.8134 1.11111 16.666V3.33268ZM15.5556 12.2605C15.924 12.2077 16.2982 12.2077 16.6667 12.2605V3.33268C16.6667 2.89065 16.4911 2.46673 16.1785 2.15417C15.8659 1.84161 15.442 1.66602 15 1.66602H13.3333V2.77713H15C15.1473 2.77713 15.2886 2.83566 15.3928 2.93985C15.497 3.04403 15.5556 3.18534 15.5556 3.33268V12.2605ZM5.55556 2.77713H11.4239V1.66602H5.55556V2.77713Z" fill="#88878A"/>
<path fill-rule="evenodd" clip-rule="evenodd" d="M12.2214 1.66602H5.55469V3.33268C5.55469 3.48002 5.49616 3.62133 5.39197 3.72552C5.28778 3.82971 5.14647 3.88824 4.99913 3.88824C4.85179 3.88824 4.71048 3.82971 4.60629 3.72552C4.50211 3.62133 4.44358 3.48002 4.44358 3.33268V1.66602H1.6658C1.37111 1.66602 1.0885 1.78308 0.880124 1.99145C0.671751 2.19983 0.554688 2.48244 0.554688 2.77713V5.5549C0.554688 5.84959 0.671751 6.13221 0.880124 6.34058C1.0885 6.54895 1.37111 6.66602 1.6658 6.66602H14.9991C15.2938 6.66602 15.5764 6.54895 15.7848 6.34058C15.9932 6.13221 16.1102 5.84959 16.1102 5.5549V2.77713C16.1102 2.48244 15.9932 2.19983 15.7848 1.99145C15.5764 1.78308 15.2938 1.66602 14.9991 1.66602H13.3325V3.33268C13.3325 3.48002 13.2739 3.62133 13.1697 3.72552C13.0656 3.82971 12.9243 3.88824 12.7769 3.88824C12.6296 3.88824 12.4883 3.82971 12.3841 3.72552C12.2799 3.62133 12.2214 3.48002 12.2214 3.33268V1.66602Z" fill="#88878A"/>
<path fill-rule="evenodd" clip-rule="evenodd" d="M16.6669 6.6658H1.11133V5.55469H16.6669V6.6658Z" fill="#88878A"/>
<path d="M3.33398 0.555556C3.33398 0.408213 3.39252 0.266905 3.4967 0.162719C3.60089 0.0585317 3.7422 0 3.88954 0C4.03688 0 4.17819 0.0585317 4.28238 0.162719C4.38656 0.266905 4.4451 0.408213 4.4451 0.555556V2.77778C4.4451 2.92512 4.38656 3.06643 4.28238 3.17061C4.17819 3.2748 4.03688 3.33333 3.88954 3.33333C3.7422 3.33333 3.60089 3.2748 3.4967 3.17061C3.39252 3.06643 3.33398 2.92512 3.33398 2.77778V0.555556ZM11.1118 0.555556C11.1118 0.408213 11.1703 0.266905 11.2745 0.162719C11.3787 0.0585317 11.52 0 11.6673 0C11.8147 0 11.956 0.0585317 12.0602 0.162719C12.1643 0.266905 12.2229 0.408213 12.2229 0.555556V2.77778C12.2229 2.92512 12.1643 3.06643 12.0602 3.17061C11.956 3.2748 11.8147 3.33333 11.6673 3.33333C11.52 3.33333 11.3787 3.2748 11.2745 3.17061C11.1703 3.06643 11.1118 2.92512 11.1118 2.77778V0.555556Z" fill="#88878A"/>
</svg>
