<svg width="27" height="23" viewBox="0 0 27 23" fill="none" xmlns="http://www.w3.org/2000/svg">
<path d="M25.4303 4.6168H9.02656M6.04406 4.6168H1.57031M25.4303 19.1656H9.02656M6.04406 19.1656H1.57031M17.9741 11.8912H1.57031M25.4303 11.8912H20.9566M7.53531 1.70703C7.93082 1.70703 8.31012 1.86031 8.58979 2.13316C8.86945 2.406 9.02656 2.77606 9.02656 3.16191V6.07168C9.02656 6.45754 8.86945 6.82759 8.58979 7.10044C8.31012 7.37328 7.93082 7.52656 7.53531 7.52656C7.13981 7.52656 6.7605 7.37328 6.48084 7.10044C6.20118 6.82759 6.04406 6.45754 6.04406 6.07168V3.16191C6.04406 2.77606 6.20118 2.406 6.48084 2.13316C6.7605 1.86031 7.13981 1.70703 7.53531 1.70703ZM7.53531 16.2559C7.93082 16.2559 8.31012 16.4091 8.58979 16.682C8.86945 16.9548 9.02656 17.3249 9.02656 17.7107V20.6205C9.02656 21.0064 8.86945 21.3764 8.58979 21.6493C8.31012 21.9221 7.93082 22.0754 7.53531 22.0754C7.13981 22.0754 6.7605 21.9221 6.48084 21.6493C6.20118 21.3764 6.04406 21.0064 6.04406 20.6205V17.7107C6.04406 17.3249 6.20118 16.9548 6.48084 16.682C6.7605 16.4091 7.13981 16.2559 7.53531 16.2559ZM19.4653 8.98144C19.8608 8.98144 20.2401 9.13473 20.5198 9.40757C20.7995 9.68041 20.9566 10.0505 20.9566 10.4363V13.3461C20.9566 13.732 20.7995 14.102 20.5198 14.3749C20.2401 14.6477 19.8608 14.801 19.4653 14.801C19.0698 14.801 18.6905 14.6477 18.4108 14.3749C18.1312 14.102 17.9741 13.732 17.9741 13.3461V10.4363C17.9741 10.0505 18.1312 9.68041 18.4108 9.40757C18.6905 9.13473 19.0698 8.98144 19.4653 8.98144Z" stroke="#4C7598" stroke-width="1.42857" stroke-linecap="round" stroke-linejoin="round"/>
</svg>
