<svg width="80" height="80" viewBox="0 0 80 80" fill="none" xmlns="http://www.w3.org/2000/svg">
<path d="M13.3327 60H19.9993V73.6033L37.0027 60H53.3327C57.0093 60 59.9993 57.01 59.9993 53.3333V26.6667C59.9993 22.99 57.0093 20 53.3327 20H13.3327C9.65602 20 6.66602 22.99 6.66602 26.6667V53.3333C6.66602 57.01 9.65602 60 13.3327 60Z" fill="white"/>
<path d="M66.6667 6.66667H26.6667C22.99 6.66667 20 9.65667 20 13.3333H60C63.6767 13.3333 66.6667 16.3233 66.6667 20V46.6667C70.3433 46.6667 73.3333 43.6767 73.3333 40V13.3333C73.3333 9.65667 70.3433 6.66667 66.6667 6.66667Z" fill="white"/>
</svg>
