<svg width="80" height="80" viewBox="0 0 80 80" fill="none" xmlns="http://www.w3.org/2000/svg">
<path d="M53.334 53.3333C53.334 49.65 42.8873 46.6667 30.0007 46.6667M53.334 53.3333C53.334 57.0167 42.8873 60 30.0007 60C17.114 60 6.66732 57.0167 6.66732 53.3333M53.334 53.3333V69.79C53.334 73.5867 42.8873 76.6667 30.0007 76.6667C17.114 76.6667 6.66732 73.59 6.66732 69.79V53.3333M53.334 53.3333C66.0807 53.3333 76.6673 50.0433 76.6673 46.6667V13.3333M30.0007 46.6667C17.114 46.6667 6.66732 49.65 6.66732 53.3333M30.0007 46.6667C15.274 46.6667 3.33398 43.3767 3.33398 40V23.3333M30.0007 16.6667C15.274 16.6667 3.33398 19.65 3.33398 23.3333M3.33398 23.3333C3.33398 27.0167 15.274 30 30.0007 30C30.0007 33.3767 40.844 36.6667 53.5907 36.6667C66.334 36.6667 76.6673 33.3767 76.6673 30M76.6673 13.3333C76.6673 9.65 66.334 6.66667 53.5907 6.66667C40.844 6.66667 30.514 9.65 30.514 13.3333M76.6673 13.3333C76.6673 17.0167 66.334 20 53.5907 20C40.8473 20 30.514 17.0167 30.514 13.3333M30.514 13.3333V47.22" stroke="white" stroke-width="2.5"/>
</svg>
